<svg width="105" height="155" viewBox="0 0 105 155" fill="none" xmlns="http://www.w3.org/2000/svg">
<path opacity="0.05" d="M1.23661 155V130.52L42.0366 88.496C50.0606 80.2 56.1126 73.672 60.1926 68.912C64.4086 64.016 67.2646 59.936 68.7606 56.672C70.3926 53.408 71.2086 50.212 71.2086 47.084C71.2086 41.508 69.3726 37.156 65.7006 34.028C62.1646 30.764 57.6766 29.132 52.2366 29.132C46.6606 29.132 41.6966 30.764 37.3446 34.028C32.9926 37.156 29.7966 41.984 27.7566 48.512L0.21661 39.536C1.84861 31.648 5.24861 24.78 10.4166 18.932C15.5846 13.084 21.8406 8.59599 29.1846 5.46799C36.5286 2.20399 44.2126 0.571994 52.2366 0.571994C62.3006 0.571994 71.1406 2.34 78.7566 5.876C86.3726 9.41199 92.2886 14.376 96.5046 20.768C100.721 27.16 102.829 34.64 102.829 43.208C102.829 48.648 101.877 54.02 99.9726 59.324C98.0686 64.492 95.1446 69.796 91.2006 75.236C87.3926 80.54 82.4286 86.32 76.3086 92.576L41.4246 128.48H104.257V155H1.23661Z" fill="#F44335"/>
</svg>
