<svg width="111" height="155" viewBox="0 0 111 155" fill="none" xmlns="http://www.w3.org/2000/svg">
<path opacity="0.05" d="M54.386 154.448C45.954 154.448 37.93 152.884 30.314 149.756C22.698 146.492 16.238 141.936 10.934 136.088C5.62999 130.24 2.09399 123.372 0.325993 115.484L28.274 106.1C30.586 112.628 33.986 117.592 38.474 120.992C42.962 124.256 48.266 125.888 54.386 125.888C59.418 125.888 63.702 124.936 67.238 123.032C70.91 121.128 73.766 118.476 75.806 115.076C77.846 111.54 78.866 107.46 78.866 102.836C78.866 98.212 77.846 94.268 75.806 91.004C73.902 87.604 71.114 85.02 67.442 83.252C63.906 81.348 59.554 80.396 54.386 80.396C51.394 80.396 48.402 80.736 45.41 81.416C42.418 82.096 39.698 83.048 37.25 84.272L29.906 68.972L68.87 26.54H9.50599V0.0199869H104.366V24.5L64.382 69.992L65.402 57.14C74.514 57.14 82.402 59.044 89.066 62.852C95.866 66.524 101.102 71.692 104.774 78.356C108.582 85.02 110.486 92.772 110.486 101.612C110.486 111.676 108.038 120.72 103.142 128.744C98.246 136.768 91.582 143.092 83.15 147.716C74.718 152.204 65.13 154.448 54.386 154.448Z" fill="#F44335"/>
</svg>
