<svg width="33" height="32" viewBox="0 0 33 32" fill="none" xmlns="http://www.w3.org/2000/svg">
<path d="M16.0618 10.0266L16.8485 11.8666C16.9018 12.0266 17.0485 12.1199 17.1952 12.1332L19.1952 12.3199C19.6218 12.3599 19.7818 12.8799 19.4752 13.1599L17.9685 14.4799C17.8485 14.5866 17.7952 14.7466 17.8352 14.8932L18.2752 16.8532C18.3685 17.2666 17.9285 17.5866 17.5552 17.3732L15.8352 16.3466C15.7018 16.2666 15.5285 16.2666 15.3952 16.3466L13.6752 17.3732C13.3152 17.5866 12.8618 17.2666 12.9552 16.8532L13.3952 14.8932C13.4352 14.7466 13.3818 14.5866 13.2618 14.4799L11.7552 13.1599C11.4352 12.8799 11.6085 12.3599 12.0352 12.3199L14.0352 12.1332C14.1952 12.1199 14.3285 12.0266 14.3952 11.8799L15.1818 10.0399C15.3418 9.63991 15.8885 9.63991 16.0618 10.0266Z" stroke="#F44335" stroke-width="1.33333" stroke-miterlimit="10" stroke-linecap="round" stroke-linejoin="round"/>
<path d="M24.6849 13.926C24.7194 8.91867 20.688 4.83144 15.6807 4.79698C10.6733 4.76252 6.58606 8.79387 6.55159 13.8013C6.51713 18.8086 10.5485 22.8959 15.5559 22.9303C20.5632 22.9648 24.6505 18.9334 24.6849 13.926Z" stroke="#F44335" stroke-width="1.33333" stroke-miterlimit="10" stroke-linecap="round" stroke-linejoin="round"/>
<path d="M14.3818 22.8399L12.1284 28.5066L9.27511 25.2399L4.96844 25.6399L7.82178 18.4932" stroke="#F44335" stroke-width="1.33333" stroke-miterlimit="10" stroke-linecap="round" stroke-linejoin="round"/>
<path d="M16.8351 22.8399L19.1018 28.5066L21.9418 25.2399L26.2618 25.6399L23.3951 18.4932" stroke="#F44335" stroke-width="1.33333" stroke-miterlimit="10" stroke-linecap="round" stroke-linejoin="round"/>
</svg>
