<svg width="134" height="133" viewBox="0 0 134 133" fill="none" xmlns="http://www.w3.org/2000/svg">
<g clip-path="url(#clip0_1_714)">
<path fill-rule="evenodd" clip-rule="evenodd" d="M68.0906 58.5472C66.0339 56.6125 64.0586 55.3942 62.4797 54.5542C47.3485 46.5811 34.0077 56.0833 25.1005 68.1044C22.7121 71.3239 20.1396 77.0671 20.1346 82.1061C20.1296 85.647 21.3635 88.8428 24.6369 90.721C28.1978 92.7817 32.8521 92.3688 37.5333 90.6704C44.3057 88.2194 51.1425 83.1075 54.5854 79.5851C58.5554 75.521 64.002 68.5921 68.4245 61.15C70.4786 63.4115 72.5535 66.4609 74.3131 70.6596C75.1019 72.5229 75.5122 74.8415 75.6102 77.343C71.829 77.8239 67.974 79.0739 64.2166 81.1553C61.0605 82.9094 55.1265 87.8349 51.9878 92.9662C49.7503 96.6309 48.96 100.401 51.1246 103.342C53.8181 106.991 57.4287 107.369 61.0349 106.076C66.1136 104.257 71.1668 98.9948 73.1996 95.5366C75.5625 91.5118 77.1542 84.8499 77.2002 78.7957C90.0623 77.8433 101.742 86.1989 104.649 100.46C104.74 100.883 105.161 101.161 105.589 101.083C106.022 100.991 106.303 100.562 106.212 100.139C103.134 85.0511 90.7853 76.1868 77.1738 77.1787C77.0631 74.5165 76.6259 72.032 75.7847 70.0404C73.8433 65.4166 71.5362 62.1111 69.2652 59.7082C70.0699 58.3 70.8331 56.8766 71.5405 55.4486C74.7208 49.037 76.6938 42.6543 76.0432 37.7512C74.5412 26.4206 65.6626 20.1925 55.3987 18.5012C45.2322 16.8298 33.7415 19.6235 26.9207 26.177C26.603 26.4827 26.5913 26.9934 26.8976 27.3078C27.2041 27.6222 27.7089 27.6343 28.0265 27.3286C34.5171 21.0918 45.4682 18.4763 55.1384 20.0764C64.7113 21.6567 73.0589 27.3949 74.4625 37.9562C75.0741 42.6267 73.1321 48.6461 70.1102 54.7407C69.4809 56.0099 68.8053 57.2779 68.0906 58.5472ZM75.6352 78.9597C72.0998 79.4364 68.5008 80.6078 64.9878 82.5597C61.9834 84.2285 56.3422 88.9016 53.3475 93.8045C51.491 96.8431 50.6103 99.956 52.4109 102.39C54.6021 105.373 57.5609 105.623 60.4988 104.569C65.2286 102.889 69.9287 97.9511 71.8248 94.7241C74.0468 90.9446 75.5722 84.6642 75.6352 78.9597ZM67.2715 59.9658C65.2438 58.0104 63.2873 56.7989 61.7348 55.9685C47.3893 48.4062 34.8267 57.661 26.3828 69.0548C24.1569 72.0526 21.7383 77.3993 21.7301 82.1094C21.7297 85.0588 22.6987 87.7681 25.4337 89.341C28.6239 91.1888 32.794 90.6934 36.9868 89.1762C43.5227 86.8108 50.1236 81.8627 53.4448 78.4676C57.415 74.4036 62.882 67.4354 67.2715 59.9658Z" fill="#00FF84"/>
<path fill-rule="evenodd" clip-rule="evenodd" d="M105.208 99.5985C104.594 99.0631 102.822 97.5287 102.548 97.3041C101.777 96.6799 101.302 96.4758 100.796 96.3228C100.387 96.2054 99.9479 96.1391 99.2133 95.8249C98.8099 95.6469 98.3381 95.8497 98.1669 96.2556C97.9958 96.6615 98.1901 97.1224 98.5935 97.3005C99.2629 97.5753 99.7093 97.6909 100.102 97.787C100.552 97.9042 100.896 98.0138 101.544 98.5459C101.861 98.8019 103.472 100.418 104.351 101.004C104.809 101.311 105.212 101.379 105.412 101.343C105.699 101.291 106.013 101.125 106.306 100.794C106.681 100.369 107.095 99.5833 107.579 98.7136C108.031 97.8951 108.561 96.9799 109.238 96.2589C109.812 95.6562 110.49 95.2005 111.353 95.1712C111.792 95.1595 112.138 94.8015 112.127 94.3605C112.116 93.9195 111.749 93.5676 111.309 93.5792C110.011 93.6059 108.948 94.249 108.079 95.1657C107.31 95.9783 106.698 97.0041 106.183 97.9401C105.872 98.4981 105.598 99.0228 105.345 99.4144C105.305 99.4778 105.256 99.5381 105.208 99.5985Z" fill="#00FF84"/>
</g>
<defs>
<clipPath id="clip0_1_714">
<rect width="103.745" height="103.745" fill="white" transform="translate(0.878662 97.4883) rotate(-70)"/>
</clipPath>
</defs>
</svg>
