<svg width="43" height="40" viewBox="0 0 43 40" fill="none" xmlns="http://www.w3.org/2000/svg">
<path d="M37.0816 23.1279H34.9284V6.72792C34.9219 5.66228 34.015 4.80136 32.8966 4.7998H10.5546C9.4313 4.80137 8.52283 5.67012 8.52283 6.74044V23.1404H6.36965C5.90555 23.1404 5.53003 23.4983 5.53003 23.9404V33.2592C5.53003 34.3296 6.43854 35.1983 7.56184 35.1999H35.8895C37.0128 35.1983 37.9213 34.3296 37.9213 33.2592V23.928C37.9213 23.7155 37.8344 23.5124 37.677 23.3624C37.5195 23.2124 37.3047 23.128 37.0817 23.128L37.0816 23.1279ZM10.2136 6.72792C10.2136 6.54199 10.3711 6.39042 10.5678 6.3873H32.8968C33.092 6.39043 33.2494 6.54199 33.2494 6.72792V23.1279H30.7305C30.3156 23.1232 29.9581 23.4092 29.8909 23.7998L29.4334 26.492H14.0267L13.5692 23.7998C13.5019 23.4092 13.1461 23.1232 12.7296 23.1279H10.2107L10.2136 6.72792ZM36.242 33.2483C36.242 33.4343 36.0862 33.5858 35.8894 33.5874H7.56174C7.36495 33.5858 7.20916 33.4343 7.20916 33.2483V24.7279H12.024L12.4897 27.4201C12.557 27.8107 12.9128 28.0967 13.3293 28.092H30.1647C30.5796 28.0967 30.937 27.8108 31.0043 27.4201L31.4618 24.7279H36.2422L36.242 33.2483Z" fill="#00FF84"/>
<path d="M23.884 29.8591H19.5679C19.1038 29.8591 18.7283 30.2185 18.7283 30.6591C18.7283 31.1013 19.1038 31.4591 19.5679 31.4591H23.884C24.3481 31.4591 24.7236 31.1013 24.7236 30.6591C24.7236 30.2185 24.3481 29.8591 23.884 29.8591Z" fill="#00FF84"/>
<path d="M18.7413 15.0919L20.8863 12.6591V22.4311C20.8863 22.8733 21.2618 23.2311 21.7259 23.2311C22.19 23.2311 22.5655 22.8733 22.5655 22.4311V12.6591L24.7105 15.0904V15.0919C24.8712 15.2716 25.1057 15.3763 25.3533 15.3763C25.5485 15.3779 25.7387 15.3154 25.8912 15.1997C26.2438 14.9169 26.2913 14.4138 25.9961 14.0763L22.3687 9.94829C22.2031 9.77642 21.9702 9.67798 21.7259 9.67798C21.4816 9.67798 21.2487 9.77642 21.0831 9.94829L17.4557 14.0639C17.1834 14.403 17.2392 14.8873 17.5819 15.1639C17.9263 15.4389 18.438 15.4076 18.7413 15.092L18.7413 15.0919Z" fill="#00FF84"/>
</svg>
