<svg width="45" height="42" viewBox="0 0 45 42" fill="none" xmlns="http://www.w3.org/2000/svg">
<path d="M32.5908 19.9071C32.5908 14.6571 28.095 10.3735 22.585 10.3735C17.075 10.3735 12.5792 14.6571 12.5792 19.9071C12.5792 20.6635 12.667 21.4198 12.8874 22.1744C13.1526 23.3918 13.6364 24.1481 14.2976 25.1981C14.4302 25.4508 14.6059 25.7018 14.7832 25.9954C15.0036 26.3318 15.1793 26.6681 15.3996 26.9618C16.2813 28.3481 16.8099 29.1454 16.8099 30.7844V34.7318C16.8099 35.7391 17.5589 36.5381 18.5731 36.7054C19.0139 38.8481 20.3363 40.1918 22.5851 40.1918C24.8339 40.1918 26.1993 38.8481 26.5971 36.7054C27.6113 36.5381 28.3603 35.6981 28.3603 34.7318V30.7844C28.3603 29.1471 28.8889 28.3071 29.7705 26.9618C29.9462 26.6681 30.1666 26.3318 30.3869 25.9954C30.5626 25.7018 30.7399 25.4491 30.8725 25.1981C31.5337 24.1481 32.0193 23.3918 32.2827 22.1744C32.5031 21.4197 32.591 20.6634 32.591 19.9071H32.5908ZM26.6399 31.7935H18.6178V30.8272C18.6178 30.6172 18.6178 30.4499 18.573 30.2809H26.6401C26.6401 30.4482 26.5954 30.6172 26.5954 30.8272L26.5971 31.7935H26.6399ZM26.2439 35.1125H18.9257C18.7053 35.1125 18.5727 34.9452 18.5727 34.7762V33.4735H26.5949V34.7762C26.6396 34.9435 26.464 35.1125 26.2436 35.1125H26.2439ZM22.5849 38.5562C22.0993 38.5562 20.8665 38.5562 20.3809 36.7925H24.8339C24.3483 38.5562 23.0706 38.5562 22.5851 38.5562H22.5849ZM30.5643 21.8397C30.3439 22.7634 29.9909 23.3934 29.3745 24.3597C29.1988 24.6124 29.0663 24.8634 28.8889 25.1571C28.6685 25.4934 28.4929 25.8297 28.3155 26.0807C27.7869 26.9207 27.3013 27.6771 26.9931 28.5581H18.2648C17.9565 27.6754 17.5157 26.9207 16.9423 26.0807C16.7667 25.7871 16.5463 25.4934 16.3689 25.1571C16.1933 24.8634 16.016 24.5697 15.8834 24.3597C15.2669 23.3524 14.9139 22.7634 14.6935 21.7971C14.5179 21.1671 14.4284 20.5371 14.4284 19.9071C14.4284 15.5807 18.1304 12.0535 22.6709 12.0535C27.2117 12.0535 30.9135 15.5808 30.9135 19.9071C30.8274 20.5371 30.7396 21.1671 30.564 21.8397H30.5643Z" fill="#00FF84"/>
<path d="M40.7456 19.0671H37.0866C36.601 19.0671 36.205 19.4445 36.205 19.9071C36.205 20.3698 36.601 20.7471 37.0866 20.7471H40.7456C41.2312 20.7471 41.6272 20.3698 41.6272 19.9071C41.6272 19.4461 41.2312 19.0671 40.7456 19.0671Z" fill="#00FF84"/>
<path d="M32.8112 11.0035C33.0316 11.0035 33.252 10.9199 33.4276 10.7509L36.0276 8.27355C36.3806 7.93722 36.3806 7.43355 36.0276 7.09722C35.6746 6.76089 35.146 6.76089 34.793 7.09722L32.193 9.57455C31.84 9.91087 31.84 10.4145 32.193 10.7509C32.3703 10.9199 32.5907 11.0035 32.8111 11.0035H32.8112Z" fill="#00FF84"/>
<path d="M22.585 6.93001C23.0706 6.93001 23.4666 6.55266 23.4666 6.09001V2.60367C23.4666 2.141 23.0706 1.76367 22.585 1.76367C22.0994 1.76367 21.7034 2.14102 21.7034 2.60367V6.09001C21.7034 6.55268 22.0994 6.93001 22.585 6.93001Z" fill="#00FF84"/>
<path d="M11.7404 10.7528C11.916 10.9202 12.1364 11.0055 12.3568 11.0055C12.5772 11.0055 12.7976 10.9218 12.9732 10.7528C13.3262 10.4165 13.3262 9.91283 12.9732 9.5765L10.3732 7.09917C10.0202 6.76284 9.49157 6.76284 9.13857 7.09917C8.78559 7.4355 8.78559 7.93917 9.13857 8.27551L11.7404 10.7528Z" fill="#00FF84"/>
<path d="M8.12622 19.0671H4.46721C3.98162 19.0671 3.5856 19.4445 3.5856 19.9071C3.5856 20.3698 3.98164 20.7471 4.46721 20.7471H8.12622C8.61181 20.7471 9.00783 20.3698 9.00783 19.9071C9.00783 19.4461 8.61179 19.0671 8.12622 19.0671Z" fill="#00FF84"/>
<path d="M11.7404 29.0635L9.14033 31.5409C8.78735 31.8772 8.78735 32.3809 9.14033 32.7172C9.31597 32.8845 9.53637 32.9698 9.75675 32.9698C9.97714 32.9698 10.1976 32.8862 10.3732 32.7172L12.9732 30.2399C13.3262 29.9035 13.3262 29.3999 12.9732 29.0635C12.6219 28.7272 12.0503 28.7272 11.7403 29.0635H11.7404Z" fill="#00FF84"/>
<path d="M33.4296 29.0635C33.0766 28.7272 32.548 28.7272 32.195 29.0635C31.842 29.3999 31.842 29.9035 32.195 30.2399L34.7951 32.7172C34.9707 32.8845 35.1911 32.9698 35.4115 32.9698C35.6319 32.9698 35.8523 32.8862 36.0279 32.7172C36.3809 32.3809 36.3809 31.8772 36.0279 31.5409L33.4296 29.0635Z" fill="#00FF84"/>
</svg>
