<svg width="43" height="40" viewBox="0 0 43 40" fill="none" xmlns="http://www.w3.org/2000/svg">
<path d="M37.9111 10.1032L32.2206 4.68125C32.1041 4.56875 31.9483 4.50781 31.7827 4.50781C31.6187 4.50781 31.4613 4.56875 31.3448 4.68125L22.2647 13.3312L23.142 14.1656L31.7826 5.93281L36.5958 10.5204L35.0904 11.9548L32.3632 9.35477C32.1205 9.12508 31.7302 9.12508 31.4875 9.35477C31.2448 9.58758 31.2448 9.95945 31.4875 10.1891L34.2147 12.7891L32.4895 14.4329L30.7676 12.7922C30.5249 12.5594 30.1346 12.5594 29.8919 12.7922C29.6492 13.0219 29.6492 13.3954 29.8919 13.6266L31.6138 15.2672L29.8886 16.911L27.1598 14.311C26.9171 14.0798 26.5269 14.0798 26.2842 14.311C26.0415 14.5423 26.0415 14.9141 26.2842 15.1454L29.0129 17.7454L27.9601 18.7485L28.8358 19.5829L37.9159 10.9328C38.1521 10.7078 38.1521 10.3344 37.911 10.1032L37.9111 10.1032Z" fill="#00FF84"/>
<path d="M19.4738 26.8344L16.7467 24.236C16.504 24.0047 16.1137 24.0047 15.871 24.236C15.6283 24.4672 15.6283 24.8391 15.871 25.0703L18.5981 27.6688L16.8729 29.3141L15.151 27.6734C14.9083 27.4422 14.5164 27.4422 14.2737 27.6734C14.031 27.9047 14.031 28.2766 14.2737 28.5078L15.9956 30.1484L14.2704 31.7906L11.5433 29.1938C11.3006 28.9609 10.9087 28.9609 10.666 29.1938C10.4233 29.4234 10.4233 29.7969 10.666 30.0281L13.3931 32.6266L11.8877 34.0625L7.07456 29.4733L15.7135 21.2421L14.8378 20.4077L5.75933 29.0561C5.51662 29.2874 5.51662 29.6592 5.75933 29.8905L11.4499 35.3141C11.5663 35.4235 11.7221 35.4875 11.8877 35.4875C12.0517 35.4875 12.2092 35.4234 12.3256 35.3141L21.404 26.6641L20.5267 25.8297L19.4738 26.8344Z" fill="#00FF84"/>
<path d="M35.1366 27.2657L14.6086 7.70649L13.2377 6.39712C12.2668 5.469 10.6056 5.41276 9.70696 6.27212L7.42586 8.44712C6.49111 9.33776 6.55182 10.8471 7.5587 11.808L29.4595 32.6769C29.7448 32.9456 30.2204 33.3925 35.4468 34.5206C35.555 34.5425 35.6633 34.555 35.7715 34.555C36.1356 34.555 36.475 34.4237 36.7259 34.1831C37.0473 33.8737 37.1769 33.4222 37.0736 32.9738C35.8896 27.9846 35.4173 27.5345 35.1368 27.2657L35.1366 27.2657ZM8.43568 10.9721C7.90928 10.4721 7.84861 9.71273 8.30121 9.27988L10.5807 7.108C10.7758 6.9205 11.0497 6.81738 11.3481 6.81738C11.7122 6.81738 12.0812 6.96894 12.3583 7.23302L13.293 8.12366L9.36875 11.8627L8.43568 10.9721ZM29.3016 29.3253C29.0851 29.2612 28.849 29.3159 28.6883 29.4659C28.5276 29.6175 28.4636 29.8393 28.5243 30.0472L28.5522 30.1425L10.2463 12.6973L14.1722 8.95818L32.3601 26.291C32.1469 26.2379 31.9223 26.291 31.7665 26.4363C31.6058 26.5879 31.5435 26.8097 31.6041 27.0144L31.9272 28.1238L30.8416 27.8082C30.6251 27.7441 30.389 27.8003 30.2283 27.9519C30.0659 28.1003 30.0036 28.3253 30.0643 28.5331L30.3874 29.6394L29.3016 29.3253ZM30.3347 31.8409L30.0231 30.769L31.1022 31.0847C31.3219 31.1456 31.5646 31.0878 31.7253 30.9331C31.8828 30.7815 31.9451 30.5612 31.8828 30.3565L31.5614 29.2534L32.6437 29.5675C32.8585 29.6316 33.0946 29.5753 33.257 29.4237C33.4177 29.2753 33.4816 29.0519 33.421 28.8456L33.0946 27.7253L34.1802 28.0284L34.2622 28.105C34.3508 28.1894 34.5082 28.4519 34.7509 29.1519L31.4416 32.3081C30.7004 32.0722 30.4265 31.9253 30.3347 31.8409L30.3347 31.8409ZM35.8464 33.3534C35.8317 33.3659 35.8054 33.3753 35.7743 33.3753L35.7251 33.3675C34.4853 33.1018 33.5342 32.8753 32.7913 32.6847L35.1495 30.4378C35.3495 31.144 35.5857 32.0503 35.8677 33.23C35.8759 33.2831 35.8677 33.3316 35.8464 33.3534L35.8464 33.3534Z" fill="#00FF84"/>
</svg>
