<svg width="31" height="31" viewBox="0 0 31 31" fill="none" xmlns="http://www.w3.org/2000/svg">
<circle opacity="0.1" cx="15.4444" cy="15.2222" r="15" fill="#00FF84"/>
<g clip-path="url(#clip0_1_706)">
<path d="M19.6679 19.4484H17.8912V16.6637C17.8912 15.9997 17.8779 15.1451 16.9646 15.1451C16.0386 15.1451 15.8972 15.8677 15.8972 16.6151V19.4484H14.1199V13.7224H15.8266V14.5024H15.8499C16.0886 14.0531 16.6686 13.5777 17.5352 13.5777C19.3352 13.5777 19.6686 14.7631 19.6686 16.3051V19.4484H19.6679ZM12.1132 12.9391C11.9776 12.9393 11.8433 12.9127 11.718 12.8608C11.5926 12.809 11.4788 12.7329 11.3829 12.637C11.287 12.541 11.211 12.4271 11.1593 12.3018C11.1075 12.1764 11.081 12.042 11.0812 11.9064C11.0814 11.7023 11.142 11.5028 11.2555 11.3332C11.369 11.1635 11.5303 11.0314 11.7189 10.9534C11.9076 10.8754 12.1151 10.8551 12.3152 10.895C12.5154 10.935 12.6992 11.0334 12.8435 11.1778C12.9877 11.3222 13.0859 11.5062 13.1255 11.7064C13.1652 11.9066 13.1447 12.1141 13.0664 12.3026C12.9882 12.4911 12.8558 12.6522 12.686 12.7655C12.5163 12.8788 12.3167 12.9392 12.1126 12.9391H12.1132ZM13.0039 19.4484H11.2219V13.7224H13.0046V19.4484H13.0039ZM20.5579 9.22241H10.3306C9.83991 9.22241 9.44458 9.60908 9.44458 10.0871V20.3577C9.44458 20.8357 9.84058 21.2224 10.3299 21.2224H20.5552C21.0446 21.2224 21.4446 20.8357 21.4446 20.3577V10.0871C21.4446 9.60908 21.0446 9.22241 20.5552 9.22241H20.5572H20.5579Z" fill="#00FF84"/>
</g>
<defs>
<clipPath id="clip0_1_706">
<rect width="16" height="16" fill="white" transform="translate(7.44458 7.22217)"/>
</clipPath>
</defs>
</svg>
