<svg width="30" height="30" viewBox="0 0 30 30" fill="none" xmlns="http://www.w3.org/2000/svg">
<g opacity="0.06">
<rect x="3.8147e-05" width="30" height="30" rx="15" fill="#01FF85"/>
</g>
<path fill-rule="evenodd" clip-rule="evenodd" d="M22.9375 13.0231V20.0782C22.9375 21.528 21.7623 22.7032 20.3125 22.7032H9.81254C8.36279 22.7032 7.18754 21.528 7.18754 20.0782V13.0231C7.18754 12.6569 7.36712 12.314 7.66824 12.1045L9.58528 10.7704C9.75527 10.6521 9.98898 10.694 10.1073 10.864C10.2256 11.0339 10.1837 11.2677 10.0137 11.386L8.09665 12.7201C7.99838 12.7885 7.93946 12.8991 7.93758 13.0173C8.05486 12.9759 8.18107 12.9533 8.31254 12.9533C8.51316 12.9533 8.71014 13.007 8.88305 13.1087L15.0625 16.7447L21.242 13.1087C21.5398 12.9335 21.8853 12.9109 22.1875 13.0176C22.1857 12.8992 22.1268 12.7885 22.0284 12.7201L20.1663 11.4242C19.9963 11.3058 19.9544 11.0721 20.0727 10.9021C20.191 10.7322 20.4247 10.6902 20.5947 10.8086L22.4568 12.1045C22.758 12.314 22.9375 12.6569 22.9375 13.0231Z" fill="#01FF85"/>
<path fill-rule="evenodd" clip-rule="evenodd" d="M9.53129 12.8125V9.0625C9.53129 8.02697 10.3708 7.1875 11.4063 7.1875H18.9063C19.9418 7.1875 20.7813 8.02697 20.7813 9.0625V12.8125L15.1563 16.1875L9.53129 12.8125ZM12.9063 10.9375H17.4063C17.6134 10.9375 17.7813 10.7696 17.7813 10.5625C17.7813 10.3554 17.6134 10.1875 17.4063 10.1875H12.9063C12.6992 10.1875 12.5313 10.3554 12.5313 10.5625C12.5313 10.7696 12.6992 10.9375 12.9063 10.9375ZM17.7813 12.8127C17.7813 13.0198 17.6134 13.1877 17.4063 13.1877H12.9063C12.6992 13.1877 12.5313 13.0198 12.5313 12.8127C12.5313 12.6056 12.6992 12.4377 12.9063 12.4377H17.4063C17.6134 12.4377 17.7813 12.6056 17.7813 12.8127Z" fill="#999999"/>
</svg>
